<?xml version="1.0" encoding="utf-8"?>
<!-- Generator: Adobe Illustrator 24.1.1, SVG Export Plug-In . SVG Version: 6.00 Build 0)  -->
<svg version="1.1" id="Layer_1" xmlns="http://www.w3.org/2000/svg" xmlns:xlink="http://www.w3.org/1999/xlink" x="0px" y="0px"
	 viewBox="0 0 512 512" style="enable-background:new 0 0 512 512;" xml:space="preserve">
<g>
	<path d="M256,0c141.4,0,256,114.63,256,256c0,141.4-114.6,256-256,256C114.63,512,0,397.4,0,256C0,114.63,114.63,0,256,0z
		 M369.73,153.6c-9.77,0.17-24.73,5.32-96.73,34.9c-25.23,10.35-75.65,31.77-151.23,64.3c-12.28,4.82-18.7,9.53-19.3,14.15
		c-1.13,8.85,11.78,11.6,28.03,16.8c13.25,4.25,31.05,9.23,40.3,9.42c8.4,0.18,17.77-3.25,28.13-10.25
		c70.62-47.07,107.1-70.85,109.37-71.37l5.38,0.52l1.2,4.53c-1.27,5.4-67.63,64.98-71.45,68.9l-1.82,1.83
		c-14.08,13.9-28.3,22.97-3.75,38.92c22.15,14.42,35.05,23.63,57.85,38.38c14.6,9.45,26.02,20.65,41.07,19.27
		c6.95-0.63,14.1-7.07,17.73-26.25c8.6-45.32,25.48-143.57,29.38-184.05c0.35-3.55-0.08-8.08-0.42-10.08c-0.35-2-1.08-4.82-3.7-6.92
		C376.65,154.1,371.85,153.57,369.73,153.6z"/>
</g>
</svg>
